<svg width="194" height="231" viewBox="0 0 194 231" fill="none" xmlns="http://www.w3.org/2000/svg">
<rect x="0.5" y="0.5" width="192.765" height="230" rx="17.3707" fill="white"/>
<rect x="0.5" y="0.5" width="192.765" height="230" rx="17.3707" stroke="#C1C5BF"/>
<rect x="50.1768" y="20.0813" width="70.9474" height="10.5789" rx="5.28943" fill="#E0E2DE"/>
<rect x="50.1768" y="38.0201" width="121.884" height="8.46309" rx="4.23155" fill="#E0E2DE"/>
<path d="M27.9525 25.133C28.6815 29.0814 31.3333 32.1656 34.7282 33.0135C31.3333 33.8613 28.6815 36.9456 27.9525 40.8939C27.2235 36.9456 24.5716 33.8613 21.1768 33.0135C24.5716 32.1656 27.2235 29.0814 27.9525 25.133Z" fill="#55A938"/>
<path d="M36.18 36.9971C36.5445 38.9713 37.8704 40.5134 39.5678 40.9373C37.8704 41.3613 36.5445 42.9034 36.18 44.8776C35.8155 42.9034 34.4895 41.3613 32.7921 40.9373C34.4895 40.5134 35.8155 38.9713 36.18 36.9971Z" fill="#55A938"/>
<path d="M34.728 21.7557C34.9363 22.8838 35.694 23.765 36.6639 24.0073C35.694 24.2495 34.9363 25.1307 34.728 26.2588C34.5197 25.1307 33.7621 24.2495 32.7921 24.0073C33.7621 23.765 34.5197 22.8838 34.728 21.7557Z" fill="#55A938"/>
<rect x="27" y="174.649" width="9" height="5.47316" rx="2.73658" fill="#E0E2DE"/>
<rect x="53" y="174.649" width="9" height="5.47316" rx="2.73658" fill="#E0E2DE"/>
<rect x="79" y="174.649" width="9" height="5.47316" rx="2.73658" fill="#E0E2DE"/>
<rect x="105" y="174.649" width="9" height="5.47316" rx="2.73658" fill="#E0E2DE"/>
<rect x="131" y="174.649" width="9" height="5.47316" rx="2.73658" fill="#E0E2DE"/>
<rect x="157" y="174.649" width="9" height="5.47316" rx="2.73658" fill="#E0E2DE"/>
<rect x="21.24" y="69.7584" width="151.481" height="92.924" rx="7.75955" stroke="#E0E2DE" stroke-width="0.480901"/>
<path d="M20.9994 100.28H172.961" stroke="#E0E2DE" stroke-width="0.480901"/>
<path d="M20.9994 85.1783H172.961" stroke="#E0E2DE" stroke-width="0.480901"/>
<path d="M20.9994 115.382H172.961" stroke="#E0E2DE" stroke-width="0.480901"/>
<path d="M20.9994 130.483H172.961" stroke="#E0E2DE" stroke-width="0.480901"/>
<path d="M20.9994 145.584H172.961" stroke="#E0E2DE" stroke-width="0.480901"/>
<path d="M46.5887 69.5178L46.5887 162.923" stroke="#E0E2DE" stroke-width="0.480901"/>
<path d="M71.5879 69.5178L71.5879 162.923" stroke="#E0E2DE" stroke-width="0.480901"/>
<path d="M96.7831 69.5178L96.7831 162.923" stroke="#E0E2DE" stroke-width="0.480901"/>
<path d="M121.783 69.5178L121.783 162.923" stroke="#E0E2DE" stroke-width="0.480901"/>
<path d="M146.978 69.5178L146.978 162.923" stroke="#E0E2DE" stroke-width="0.480901"/>
<ellipse cx="1.69393" cy="1.94231" rx="1.69393" ry="1.94231" transform="matrix(-0.960291 0.279002 0.208355 0.978053 174.152 112.51)" fill="#A6DC94"/>
<ellipse cx="152.353" cy="95.2748" rx="1.67625" ry="1.95759" fill="#55A938"/>
<ellipse cx="116.433" cy="142.817" rx="1.67625" ry="1.95759" fill="#55A938"/>
<ellipse cx="167.679" cy="132.189" rx="1.67625" ry="1.95759" fill="#55A938"/>
<ellipse cx="160.495" cy="148.969" rx="1.67625" ry="1.95759" fill="#55A938"/>
<ellipse cx="1.69393" cy="1.94231" rx="1.69393" ry="1.94231" transform="matrix(0.960291 -0.279002 -0.208355 -0.978053 151.564 94.7859)" fill="#A6DC94"/>
<ellipse cx="1.69393" cy="1.94231" rx="1.69393" ry="1.94231" transform="matrix(0.960291 -0.279002 -0.208355 -0.978053 155.737 102.795)" fill="#A6DC94"/>
<ellipse cx="1.69393" cy="1.94231" rx="1.69393" ry="1.94231" transform="matrix(0.960291 -0.279002 -0.208355 -0.978053 150.045 103.873)" fill="#A6DC94"/>
<ellipse cx="1.69393" cy="1.94231" rx="1.69393" ry="1.94231" transform="matrix(0.960291 -0.279002 -0.208355 -0.978053 131.083 133.012)" fill="#A6DC94"/>
<ellipse cx="1.69393" cy="1.94231" rx="1.69393" ry="1.94231" transform="matrix(0.960291 -0.279002 -0.208355 -0.978053 111.859 72.8931)" fill="#A6DC94"/>
<ellipse cx="1.69393" cy="1.94231" rx="1.69393" ry="1.94231" transform="matrix(0.960291 -0.279002 -0.208355 -0.978053 143.294 118.515)" fill="#A6DC94"/>
<ellipse cx="1.69393" cy="1.94231" rx="1.69393" ry="1.94231" transform="matrix(0.960291 -0.279002 -0.208355 -0.978053 171.22 133.069)" fill="#A6DC94"/>
<ellipse cx="1.69393" cy="1.94231" rx="1.69393" ry="1.94231" transform="matrix(0.960291 -0.279002 -0.208355 -0.978053 92.0992 86.7032)" fill="#A6DC94"/>
<ellipse cx="1.69393" cy="1.94231" rx="1.69393" ry="1.94231" transform="matrix(0.960291 -0.279002 -0.208355 -0.978053 117.647 93.1129)" fill="#A6DC94"/>
<ellipse cx="1.69393" cy="1.94231" rx="1.69393" ry="1.94231" transform="matrix(0.960291 -0.279002 -0.208355 -0.978053 123.551 113.876)" fill="#A6DC94"/>
<ellipse cx="1.69393" cy="1.94231" rx="1.69393" ry="1.94231" transform="matrix(0.960291 -0.279002 -0.208355 -0.978053 99.9922 91.3262)" fill="#A6DC94"/>
<ellipse cx="1.69393" cy="1.94231" rx="1.69393" ry="1.94231" transform="matrix(0.960291 -0.279002 -0.208355 -0.978053 104.375 123.481)" fill="#A6DC94"/>
<ellipse cx="1.95759" cy="1.67625" rx="1.95759" ry="1.67625" transform="matrix(-3.74294e-08 -1 -1 5.10477e-08 51.5383 92.798)" fill="#A6DC94"/>
<ellipse cx="1.95759" cy="1.67625" rx="1.95759" ry="1.67625" transform="matrix(-3.74294e-08 -1 -1 5.10477e-08 59.2014 90.0007)" fill="#A6DC94"/>
<ellipse cx="1.95759" cy="1.67625" rx="1.95759" ry="1.67625" transform="matrix(-3.74294e-08 -1 -1 5.10477e-08 58.7224 96.7125)" fill="#A6DC94"/>
<ellipse cx="1.95759" cy="1.67625" rx="1.95759" ry="1.67625" transform="matrix(-3.74294e-08 -1 -1 5.10477e-08 78.358 125.238)" fill="#A6DC94"/>
<ellipse cx="1.95759" cy="1.67625" rx="1.95759" ry="1.67625" transform="matrix(-3.74294e-08 -1 -1 5.10477e-08 23.7611 132.509)" fill="#A6DC94"/>
<ellipse cx="1.95759" cy="1.67625" rx="1.95759" ry="1.67625" transform="matrix(-3.74294e-08 -1 -1 5.10477e-08 69.26 107.899)" fill="#A6DC94"/>
<ellipse cx="1.95759" cy="1.67625" rx="1.95759" ry="1.67625" transform="matrix(-3.74294e-08 -1 -1 5.10477e-08 88.4158 78.2556)" fill="#A6DC94"/>
<ellipse cx="1.95759" cy="1.67625" rx="1.95759" ry="1.67625" transform="matrix(-3.74294e-08 -1 -1 5.10477e-08 30.4653 158.238)" fill="#A6DC94"/>
<ellipse cx="1.95759" cy="1.67625" rx="1.95759" ry="1.67625" transform="matrix(-3.74294e-08 -1 -1 5.10477e-08 41.9604 130.831)" fill="#A6DC94"/>
<ellipse cx="1.95759" cy="1.67625" rx="1.95759" ry="1.67625" transform="matrix(-3.74294e-08 -1 -1 5.10477e-08 60.6381 129.154)" fill="#A6DC94"/>
<ellipse cx="1.95759" cy="1.67625" rx="1.95759" ry="1.67625" transform="matrix(-3.74294e-08 -1 -1 5.10477e-08 36.2131 150.407)" fill="#A6DC94"/>
<ellipse cx="1.95759" cy="1.67625" rx="1.95759" ry="1.67625" transform="matrix(-3.74294e-08 -1 -1 5.10477e-08 63.99 153.204)" fill="#A6DC94"/>
<ellipse cx="1.69393" cy="1.94231" rx="1.69393" ry="1.94231" transform="matrix(0.960291 0.279002 -0.208355 0.978053 151.564 131.599)" fill="#2E5C1E"/>
<ellipse cx="1.69393" cy="1.94231" rx="1.69393" ry="1.94231" transform="matrix(0.960291 0.279002 -0.208355 0.978053 155.737 123.591)" fill="#2E5C1E"/>
<ellipse cx="1.69393" cy="1.94231" rx="1.69393" ry="1.94231" transform="matrix(0.960291 0.279002 -0.208355 0.978053 150.045 122.513)" fill="#2E5C1E"/>
<ellipse cx="1.69393" cy="1.94231" rx="1.69393" ry="1.94231" transform="matrix(0.960291 0.279002 -0.208355 0.978053 131.083 93.3729)" fill="#2E5C1E"/>
<ellipse cx="1.69393" cy="1.94231" rx="1.69393" ry="1.94231" transform="matrix(0.960291 0.279002 -0.208355 0.978053 111.859 153.493)" fill="#2E5C1E"/>
<ellipse cx="1.69393" cy="1.94231" rx="1.69393" ry="1.94231" transform="matrix(0.960291 0.279002 -0.208355 0.978053 143.294 107.872)" fill="#2E5C1E"/>
<ellipse cx="1.69393" cy="1.94231" rx="1.69393" ry="1.94231" transform="matrix(0.960291 0.279002 -0.208355 0.978053 171.22 93.3173)" fill="#2E5C1E"/>
<ellipse cx="1.69393" cy="1.94231" rx="1.69393" ry="1.94231" transform="matrix(0.960291 0.279002 -0.208355 0.978053 92.0992 139.683)" fill="#2E5C1E"/>
<ellipse cx="1.69393" cy="1.94231" rx="1.69393" ry="1.94231" transform="matrix(0.960291 0.279002 -0.208355 0.978053 117.647 133.273)" fill="#2E5C1E"/>
<ellipse cx="1.69393" cy="1.94231" rx="1.69393" ry="1.94231" transform="matrix(0.960291 0.279002 -0.208355 0.978053 123.551 112.51)" fill="#2E5C1E"/>
<ellipse cx="1.69393" cy="1.94231" rx="1.69393" ry="1.94231" transform="matrix(0.960291 0.279002 -0.208355 0.978053 99.9922 135.06)" fill="#2E5C1E"/>
<ellipse cx="1.69393" cy="1.94231" rx="1.69393" ry="1.94231" transform="matrix(0.960291 0.279002 -0.208355 0.978053 104.375 102.905)" fill="#2E5C1E"/>
<ellipse cx="49.8621" cy="135.546" rx="1.95759" ry="1.67625" transform="rotate(90 49.8621 135.546)" fill="#2E5C1E"/>
<ellipse cx="57.5252" cy="138.341" rx="1.95759" ry="1.67625" transform="rotate(90 57.5252 138.341)" fill="#2E5C1E"/>
<ellipse cx="57.0462" cy="131.63" rx="1.95759" ry="1.67625" transform="rotate(90 57.0462 131.63)" fill="#2E5C1E"/>
<ellipse cx="76.6818" cy="103.105" rx="1.95759" ry="1.67625" transform="rotate(90 76.6818 103.105)" fill="#2E5C1E"/>
<ellipse cx="22.0849" cy="95.8346" rx="1.95759" ry="1.67625" transform="rotate(90 22.0849 95.8346)" fill="#2E5C1E"/>
<ellipse cx="67.5838" cy="120.444" rx="1.95759" ry="1.67625" transform="rotate(90 67.5838 120.444)" fill="#2E5C1E"/>
<ellipse cx="86.7395" cy="150.087" rx="1.95759" ry="1.67625" transform="rotate(90 86.7395 150.087)" fill="#2E5C1E"/>
<ellipse cx="28.7891" cy="70.1061" rx="1.95759" ry="1.67625" transform="rotate(90 28.7891 70.1061)" fill="#2E5C1E"/>
<ellipse cx="40.2842" cy="97.5124" rx="1.95759" ry="1.67625" transform="rotate(90 40.2842 97.5124)" fill="#2E5C1E"/>
<ellipse cx="58.9618" cy="99.1901" rx="1.95759" ry="1.67625" transform="rotate(90 58.9618 99.1901)" fill="#2E5C1E"/>
<ellipse cx="34.5369" cy="77.9367" rx="1.95759" ry="1.67625" transform="rotate(90 34.5369 77.9367)" fill="#2E5C1E"/>
<ellipse cx="62.3137" cy="75.1402" rx="1.95759" ry="1.67625" transform="rotate(90 62.3137 75.1402)" fill="#2E5C1E"/>
<ellipse cx="85.7821" cy="114.292" rx="1.67625" ry="1.95759" fill="#55A938"/>
<ellipse cx="88.1769" cy="105.342" rx="1.67625" ry="1.95759" fill="#55A938"/>
<ellipse cx="82.4298" cy="105.902" rx="1.67625" ry="1.95759" fill="#55A938"/>
<ellipse cx="136.548" cy="85.2075" rx="1.67625" ry="1.95759" fill="#55A938"/>
<ellipse cx="103.981" cy="109.817" rx="1.67625" ry="1.95759" fill="#55A938"/>
<ellipse cx="58.0044" cy="82.9699" rx="1.67625" ry="1.95759" fill="#55A938"/>
<ellipse cx="51.7779" cy="146.732" rx="1.67625" ry="1.95759" fill="#55A938"/>
<ellipse cx="134.633" cy="119.326" rx="1.67625" ry="1.95759" fill="#55A938"/>
<ellipse cx="160.495" cy="79.0546" rx="1.67625" ry="1.95759" fill="#55A938"/>
<ellipse cx="144.69" cy="87.445" rx="1.67625" ry="1.95759" fill="#55A938"/>
<ellipse cx="136.548" cy="95.8346" rx="1.67625" ry="1.95759" fill="#55A938"/>
<ellipse cx="72.8503" cy="93.5971" rx="1.67625" ry="1.95759" fill="#55A938"/>
<ellipse cx="98.2346" cy="71.2249" rx="1.67625" ry="1.95759" fill="#55A938"/>
<ellipse cx="29.7473" cy="138.901" rx="1.67625" ry="1.95759" fill="#55A938"/>
<ellipse cx="53.2146" cy="125.478" rx="1.67625" ry="1.95759" fill="#55A938"/>
<ellipse cx="54.6521" cy="103.664" rx="1.67625" ry="1.95759" fill="#55A938"/>
<ellipse cx="36.4523" cy="132.189" rx="1.67625" ry="1.95759" fill="#55A938"/>
<ellipse cx="34.0572" cy="99.7491" rx="1.67625" ry="1.95759" fill="#55A938"/>
<ellipse cx="34.0572" cy="99.7491" rx="1.67625" ry="1.95759" fill="#55A938"/>
<rect x="33.9988" y="204.527" width="3.52941" height="4.10487" rx="1.76471" fill="#55A938"/>
<rect x="41.6458" y="202.983" width="24.7059" height="6.84145" rx="3.42073" fill="#E0E2DE"/>
<rect x="80.4708" y="204.527" width="3.52941" height="4.10487" rx="1.76471" fill="#A6DC94"/>
<rect x="88.1178" y="202.983" width="24.7059" height="6.84145" rx="3.42073" fill="#E0E2DE"/>
<rect x="126.941" y="204.527" width="3.52941" height="4.10487" rx="1.76471" fill="#3A7326"/>
<rect x="134.588" y="202.983" width="24.7059" height="6.84145" rx="3.42073" fill="#E0E2DE"/>
</svg>
