<svg width="372" height="294" viewBox="0 0 372 294" fill="none" xmlns="http://www.w3.org/2000/svg">
<rect x="0.5" y="0.5" width="371" height="293" rx="31.5" fill="#EFF0EF"/>
<rect x="0.5" y="0.5" width="371" height="293" rx="31.5" stroke="#C1C5BF"/>
<rect x="0.5" y="221.5" width="331" height="72" rx="25.2409" fill="white"/>
<rect x="0.5" y="221.5" width="331" height="72" rx="25.2409" stroke="#C1C5BF"/>
<rect x="64.6392" y="240.833" width="150.584" height="12.8704" rx="6.43522" fill="#E0E2DE"/>
<rect x="65" y="264" width="242" height="10" rx="5" fill="#E0E2DE"/>
<path d="M33.516 246.683C34.6616 252.017 38.8287 256.184 44.1634 257.33C38.8287 258.476 34.6616 262.643 33.516 267.977C32.3705 262.643 28.2033 258.476 22.8687 257.33C28.2033 256.184 32.3705 252.017 33.516 246.683Z" fill="#55A938"/>
<path d="M46.4448 262.712C47.0175 265.38 49.1011 267.463 51.7685 268.036C49.1011 268.609 47.0175 270.692 46.4448 273.36C45.872 270.692 43.7884 268.609 41.1211 268.036C43.7884 267.463 45.872 265.38 46.4448 262.712Z" fill="#55A938"/>
<path d="M44.1632 242.12C44.4905 243.644 45.6811 244.834 47.2053 245.162C45.6811 245.489 44.4905 246.68 44.1632 248.204C43.8359 246.68 42.6453 245.489 41.1211 245.162C42.6453 244.834 43.8359 243.644 44.1632 242.12Z" fill="#55A938"/>
</svg>
