<svg width="114" height="32" viewBox="0 0 114 32" fill="none" xmlns="http://www.w3.org/2000/svg">
<path d="M91.5495 18.5567H82.9868C83.1589 19.3559 83.5462 19.9823 84.1701 20.4359C84.7725 20.8895 85.5255 21.1055 86.4291 21.1055C87.6554 21.1055 88.5805 20.6519 89.2045 19.7663L91.1192 20.8895C90.065 22.4663 88.4945 23.2439 86.4076 23.2439C84.6649 23.2439 83.2665 22.7039 82.1692 21.6455C81.0935 20.5655 80.5557 19.2047 80.5557 17.5631C80.5557 15.9647 81.0935 14.6255 82.1477 13.5239C83.2019 12.4223 84.5573 11.8823 86.2355 11.8823C87.806 11.8823 89.0969 12.4439 90.1081 13.5455C91.1192 14.6471 91.6356 16.0079 91.6356 17.5847C91.6356 17.8655 91.6141 18.1895 91.5495 18.5567ZM82.9653 16.6559H89.2905C89.1399 15.8135 88.7742 15.1439 88.2148 14.6687C87.6769 14.2151 87.01 13.9991 86.214 13.9991C85.3534 13.9991 84.6434 14.2367 84.0625 14.7119C83.4816 15.1871 83.1159 15.8351 82.9653 16.6559Z" fill="#141513"/>
<path d="M76.2691 16.5479C76.7639 16.6559 77.1942 16.7855 77.5599 16.8935C78.0548 17.0663 78.4635 17.2607 78.7863 17.4983C79.6253 18.0815 80.0556 18.9023 80.0341 19.9175C80.0341 20.9543 79.6253 21.7751 78.8293 22.3583C78.0332 22.9415 77.0221 23.2439 75.8388 23.2439C73.6443 23.2439 72.1813 22.4015 71.4498 20.7167L73.4507 19.5503C73.8164 20.5871 74.6124 21.1055 75.8388 21.1055C77.0651 21.1055 77.6675 20.6951 77.6675 19.8959C77.6675 19.3127 76.979 18.8375 75.6236 18.5135C75.1073 18.3839 74.677 18.2543 74.3543 18.1463C73.8594 17.9735 73.4507 17.7791 73.128 17.5415C72.2889 16.9583 71.8586 16.1807 71.8801 15.1871C71.8801 14.1935 72.2459 13.3943 72.9989 12.7895C73.7519 12.1847 74.6985 11.8823 75.8173 11.8823C77.6675 11.8823 79.0014 12.6383 79.7974 14.1287L77.8396 15.2303C77.4739 14.4095 76.8069 13.9991 75.8173 13.9991C74.7631 13.9991 74.2467 14.3879 74.2467 15.1439C74.2467 15.6839 74.9137 16.1591 76.2691 16.5479Z" fill="#141513"/>
<path d="M70.1705 22.9634H67.8469L67.8653 12.0757H70.1888L70.1705 22.9634Z" fill="#141513"/>
<path d="M53.6154 22.9633H50.754L46.4941 7.84326H49.0974L52.26 19.6585L55.6808 7.84326H57.9613L61.3606 19.6585L63.6863 12.0756H66.2895L62.8666 22.9633H60.0052L56.8211 11.9257L53.6154 22.9633Z" fill="#141513"/>
<path d="M43.0328 13.6967V12.1631H45.3563V22.9631H43.0328V21.4079C42.1507 22.6391 40.9028 23.2439 39.2677 23.2439C37.7832 23.2439 36.5354 22.7039 35.4812 21.6023C34.427 20.5007 33.9106 19.1615 33.9106 17.5631C33.9106 15.9647 34.427 14.6255 35.4812 13.5239C36.5354 12.4223 37.7832 11.8823 39.2677 11.8823C40.9028 11.8823 42.1507 12.4871 43.0328 13.6967ZM39.6335 21.0191C40.6016 21.0191 41.4192 20.6951 42.0646 20.0471C42.71 19.3775 43.0328 18.5351 43.0328 17.5631C43.0328 16.5695 42.71 15.7487 42.0646 15.1007C41.4192 14.4311 40.6016 14.1071 39.6335 14.1071C38.6653 14.1071 37.8478 14.4311 37.2024 15.1007C36.5569 15.7487 36.2342 16.5695 36.2342 17.5631C36.2342 18.5351 36.5569 19.3775 37.2024 20.0471C37.8478 20.6951 38.6653 21.0191 39.6335 21.0191Z" fill="#141513"/>
<path d="M33.4919 12.1632V14.4096H30.8241V19.5936C30.8241 20.22 31.0393 20.6304 31.4911 20.7816C31.8138 20.8896 32.4807 20.9112 33.4919 20.868V22.9631C31.7062 23.1791 30.4369 23.0279 29.6623 22.5095C28.8878 21.9695 28.5006 20.9976 28.5006 19.5936V14.4096H26.5212V12.1632H28.5006V9.83036L30.8241 9.13916V12.1632H33.4919Z" fill="#141513"/>
<path d="M23.1032 13.6967V12.1631H25.4267V22.9631H23.1032V21.4079C22.2211 22.6391 20.9733 23.2439 19.3382 23.2439C17.8537 23.2439 16.6058 22.7039 15.5516 21.6023C14.4974 20.5007 13.9811 19.1615 13.9811 17.5631C13.9811 15.9647 14.4974 14.6255 15.5516 13.5239C16.6058 12.4223 17.8537 11.8823 19.3382 11.8823C20.9733 11.8823 22.2211 12.4871 23.1032 13.6967ZM19.7039 21.0191C20.6721 21.0191 21.4896 20.6951 22.135 20.0471C22.7805 19.3775 23.1032 18.5351 23.1032 17.5631C23.1032 16.5695 22.7805 15.7487 22.135 15.1007C21.4896 14.4311 20.6721 14.1071 19.7039 14.1071C18.7358 14.1071 17.9182 14.4311 17.2728 15.1007C16.6274 15.7487 16.3046 16.5695 16.3046 17.5631C16.3046 18.5351 16.6274 19.3775 17.2728 20.0471C17.9182 20.6951 18.7358 21.0191 19.7039 21.0191Z" fill="#141513"/>
<path d="M0 7.84326H5.91646C7.98185 7.84326 9.703 8.57766 11.0584 10.0249C12.4353 11.4721 13.1238 13.2649 13.1238 15.4033C13.1238 17.5201 12.4353 19.3129 11.0584 20.7817C9.703 22.2289 7.98185 22.9633 5.91646 22.9633H0V7.84326ZM2.47416 20.5873H5.91646C7.33641 20.5873 8.49819 20.0905 9.38028 19.1185C10.2839 18.1465 10.7357 16.8937 10.7357 15.4033C10.7357 13.8913 10.2839 12.6601 9.38028 11.6881C8.49819 10.7161 7.33641 10.2193 5.91646 10.2193H2.47416V20.5873Z" fill="#141513"/>
<path d="M68.9703 7.91602C69.1538 8.77416 69.8215 9.4445 70.6762 9.62878C69.8215 9.81306 69.1538 10.4834 68.9703 11.3415C68.7867 10.4834 68.119 9.81306 67.2643 9.62878C68.119 9.4445 68.7867 8.77416 68.9703 7.91602Z" fill="#141513"/>
<path fill-rule="evenodd" clip-rule="evenodd" d="M110.56 7C110.775 8.06469 111.554 8.89637 112.552 9.125C111.554 9.35363 110.775 10.1853 110.56 11.25C110.346 10.1853 109.566 9.35363 108.568 9.125C109.566 8.89637 110.346 8.06469 110.56 7ZM97.6118 15.5C97.6118 14.6198 98.3254 13.9062 99.2056 13.9062H111.955C112.835 13.9062 113.548 14.6198 113.548 15.5C113.548 16.3802 112.835 17.0938 111.955 17.0938H99.2056C98.3254 17.0938 97.6118 16.3802 97.6118 15.5ZM99.2056 8.0625C98.3254 8.0625 97.6118 8.77605 97.6118 9.65625C97.6118 10.5365 98.3254 11.25 99.2056 11.25H104.982C105.863 11.25 106.576 10.5365 106.576 9.65625C106.576 8.77605 105.863 8.0625 104.982 8.0625H99.2056ZM97.6118 21.3438C97.6118 20.4635 98.3254 19.75 99.2056 19.75H100.002C100.882 19.75 101.596 20.4635 101.596 21.3438C101.596 22.224 100.882 22.9375 100.002 22.9375H99.2056C98.3254 22.9375 97.6118 22.224 97.6118 21.3438ZM105.182 19.75C104.302 19.75 103.588 20.4635 103.588 21.3438C103.588 22.224 104.302 22.9375 105.182 22.9375H109.963C110.843 22.9375 111.556 22.224 111.556 21.3438C111.556 20.4635 110.843 19.75 109.963 19.75H105.182Z" fill="#3A7326"/>
</svg>
