<svg width="68" height="68" viewBox="0 0 68 68" fill="none" xmlns="http://www.w3.org/2000/svg">
<g filter="url(#filter0_b_82_731)">
<path fill-rule="evenodd" clip-rule="evenodd" d="M30.4584 8.50008C30.4584 8.10969 30.7763 7.79175 31.1667 7.79175H36.8334C37.2238 7.79175 37.5417 8.10969 37.5417 8.50008V14.1667C37.5417 14.5571 37.2238 14.8751 36.8334 14.8751H31.1667C30.7763 14.8751 30.4584 14.5571 30.4584 14.1667V8.50008ZM31.1667 3.54175C28.4291 3.54175 26.2084 5.76248 26.2084 8.50008V9.20841H17C12.6956 9.20841 9.20835 12.6956 9.20835 17.0001V26.2084L8.50002 26.2084C5.76242 26.2084 3.54169 28.4291 3.54169 31.1667V36.8334C3.54169 39.571 5.76242 41.7918 8.50002 41.7918H9.20835V51.0001C9.20835 55.3045 12.6956 58.7917 17 58.7917H26.2084V59.5001C26.2084 62.2377 28.4291 64.4584 31.1667 64.4584H36.8334C39.571 64.4584 41.7917 62.2377 41.7917 59.5001V58.7917H51C55.3045 58.7917 58.7917 55.3045 58.7917 51.0001V41.7918H59.5C62.2376 41.7918 64.4584 39.571 64.4584 36.8334V31.1667C64.4584 28.4291 62.2376 26.2084 59.5 26.2084H58.7917V17.0001C58.7917 12.6956 55.3045 9.20841 51 9.20841H41.7917V8.50008C41.7917 5.76248 39.571 3.54175 36.8334 3.54175H31.1667ZM13.4584 51.0001C13.4584 52.9573 15.0428 54.5417 17 54.5417H26.2084V53.8334C26.2084 51.0958 28.4291 48.8751 31.1667 48.8751H36.8334C39.571 48.8751 41.7917 51.0958 41.7917 53.8334V54.5417H51C52.9572 54.5417 54.5417 52.9573 54.5417 51.0001V41.7918H53.8334C51.0957 41.7918 48.875 39.571 48.875 36.8334V31.1667C48.875 28.4291 51.0957 26.2084 53.8334 26.2084H54.5417V17.0001C54.5417 15.0429 52.9572 13.4584 51 13.4584H41.7917V14.1667C41.7917 16.9044 39.571 19.1251 36.8334 19.1251H31.1667C28.4291 19.1251 26.2084 16.9044 26.2084 14.1667V13.4584H17C15.0428 13.4584 13.4584 15.0429 13.4584 17.0001V26.2084L14.1667 26.2084C16.9043 26.2084 19.125 28.4291 19.125 31.1667V36.8334C19.125 39.571 16.9043 41.7918 14.1667 41.7918H13.4584V51.0001ZM30.4584 53.8334C30.4584 53.443 30.7763 53.1251 31.1667 53.1251H36.8334C37.2238 53.1251 37.5417 53.443 37.5417 53.8334V59.5001C37.5417 59.8905 37.2238 60.2084 36.8334 60.2084H31.1667C30.7763 60.2084 30.4584 59.8905 30.4584 59.5001V53.8334ZM8.50002 30.4584C8.10963 30.4584 7.79169 30.7764 7.79169 31.1667V36.8334C7.79169 37.2238 8.10963 37.5417 8.50002 37.5417H14.1667C14.5571 37.5417 14.875 37.2238 14.875 36.8334V31.1667C14.875 30.7764 14.5571 30.4584 14.1667 30.4584H8.50002ZM53.125 31.1667C53.125 30.7764 53.443 30.4584 53.8334 30.4584H59.5C59.8904 30.4584 60.2084 30.7764 60.2084 31.1667V36.8334C60.2084 37.2238 59.8904 37.5417 59.5 37.5417H53.8334C53.443 37.5417 53.125 37.2238 53.125 36.8334V31.1667ZM36.6917 34.0001C36.6917 35.3471 35.6036 36.4821 34.2125 36.4821C32.8434 36.4821 31.7334 35.372 31.7334 34.0029C31.7334 31.9875 33.3879 31.5355 34.1817 31.524C35.5808 31.5037 36.6917 32.637 36.6917 34.0001Z" fill="#3A7326"/>
</g>
<defs>
<filter id="filter0_b_82_731" x="-8" y="-8" width="84" height="84" filterUnits="userSpaceOnUse" color-interpolation-filters="sRGB">
<feFlood flood-opacity="0" result="BackgroundImageFix"/>
<feGaussianBlur in="BackgroundImageFix" stdDeviation="4"/>
<feComposite in2="SourceAlpha" operator="in" result="effect1_backgroundBlur_82_731"/>
<feBlend mode="normal" in="SourceGraphic" in2="effect1_backgroundBlur_82_731" result="shape"/>
</filter>
</defs>
</svg>
