<svg width="68" height="68" viewBox="0 0 68 68" fill="none" xmlns="http://www.w3.org/2000/svg">
<g filter="url(#filter0_b_96_747)">
<path fill-rule="evenodd" clip-rule="evenodd" d="M14.158 9.19897C9.85222 9.19897 6.36394 12.6873 6.36394 16.993V34.0001C6.36394 35.1737 7.31533 36.1251 8.48894 36.1251C9.66254 36.1251 10.6139 35.1737 10.6139 34.0001V16.993C10.6139 15.0345 12.1994 13.449 14.158 13.449H31.8746V56.6762C31.8746 57.8498 32.826 58.8012 33.9996 58.8012H53.8412C58.1469 58.8012 61.6352 55.3129 61.6352 51.0072V16.993C61.6352 12.6873 58.1469 9.19897 53.8412 9.19897H14.158ZM53.8412 54.5512H36.1246V13.449H53.8412C55.7997 13.449 57.3852 15.0345 57.3852 16.993V51.0072C57.3852 52.9657 55.7997 54.5512 53.8412 54.5512ZM40.3792 22.6618C40.3792 21.4882 41.3305 20.5368 42.5042 20.5368H51.0077C52.1813 20.5368 53.1327 21.4882 53.1327 22.6618C53.1327 23.8354 52.1813 24.7868 51.0077 24.7868H42.5042C41.3305 24.7868 40.3792 23.8354 40.3792 22.6618ZM22.6615 40.3784H11.3237C10.15 40.3784 9.19865 41.3298 9.19865 42.5034C9.19865 43.677 10.15 44.6284 11.3237 44.6284H17.5313L6.98634 55.1734C6.15647 56.0033 6.15647 57.3487 6.98634 58.1786C7.8162 59.0085 9.16167 59.0085 9.99154 58.1786L20.5367 47.6334V53.8415C20.5367 55.0151 21.4881 55.9665 22.6617 55.9665C23.8353 55.9665 24.7867 55.0151 24.7867 53.8415V42.5034C24.7867 42.1373 24.6941 41.7929 24.5311 41.4921C24.4782 41.3945 24.4171 41.3001 24.3478 41.2099C23.9593 40.7043 23.3486 40.3784 22.6617 40.3784H22.6615ZM42.5042 31.875C41.3305 31.875 40.3792 32.8264 40.3792 34C40.3792 35.1736 41.3305 36.125 42.5042 36.125H51.0077C52.1813 36.125 53.1327 35.1736 53.1327 34C53.1327 32.8264 52.1813 31.875 51.0077 31.875H42.5042ZM40.3792 45.3382C40.3792 44.1646 41.3305 43.2132 42.5042 43.2132H51.0077C52.1813 43.2132 53.1327 44.1646 53.1327 45.3382C53.1327 46.5118 52.1813 47.4632 51.0077 47.4632H42.5042C41.3305 47.4632 40.3792 46.5118 40.3792 45.3382Z" fill="#3A7326"/>
</g>
<defs>
<filter id="filter0_b_96_747" x="-8" y="-8" width="84" height="84" filterUnits="userSpaceOnUse" color-interpolation-filters="sRGB">
<feFlood flood-opacity="0" result="BackgroundImageFix"/>
<feGaussianBlur in="BackgroundImageFix" stdDeviation="4"/>
<feComposite in2="SourceAlpha" operator="in" result="effect1_backgroundBlur_96_747"/>
<feBlend mode="normal" in="SourceGraphic" in2="effect1_backgroundBlur_96_747" result="shape"/>
</filter>
</defs>
</svg>
