<svg width="20" height="24" viewBox="0 0 20 24" fill="none" xmlns="http://www.w3.org/2000/svg">
<path fill-rule="evenodd" clip-rule="evenodd" d="M15.8333 5.66667C16.1023 6.91924 17.0807 7.8977 18.3333 8.16667C17.0807 8.43565 16.1023 9.4141 15.8333 10.6667C15.5643 9.4141 14.5859 8.43565 13.3333 8.16667C14.5859 7.8977 15.5643 6.91924 15.8333 5.66667ZM7.56 5.83334C8.31958 9.37061 11.0827 12.1338 14.62 12.8933C11.0827 13.6529 8.31958 16.4161 7.56 19.9533C6.80042 16.4161 4.03726 13.6529 0.5 12.8933C4.03726 12.1338 6.80042 9.37061 7.56 5.83334ZM18.3333 19C16.6632 18.6414 15.3586 17.3368 15 15.6667C14.6413 17.3368 13.3367 18.6414 11.6666 19C13.3367 19.3586 14.6413 20.6632 15 22.3333C15.3586 20.6632 16.6632 19.3586 18.3333 19Z" fill="#3A7326"/>
</svg>
