<svg width="372" height="88" viewBox="0 0 372 88" fill="none" xmlns="http://www.w3.org/2000/svg">
<g clip-path="url(#clip0_82_2094)">
<g clip-path="url(#clip1_82_2094)">
<path d="M45.5361 50.7065H56.0306V47.5455H49.2661V35.6392H45.5361V50.7065Z" fill="#51564E"/>
<path d="M62.2481 48.5992C60.7519 48.5992 59.9722 47.2927 59.9722 45.3329C59.9722 43.3731 60.7519 42.0455 62.2481 42.0455C63.7443 42.0455 64.5451 43.3731 64.5451 45.3329C64.5451 47.2927 63.7443 48.5992 62.2481 48.5992ZM62.2692 51.0437C65.7462 51.0437 68.0221 48.5782 68.0221 45.3329C68.0221 42.0876 65.7462 39.6221 62.2692 39.6221C58.8132 39.6221 56.4951 42.0876 56.4951 45.3329C56.4951 48.5782 58.8132 51.0437 62.2692 51.0437Z" fill="#51564E"/>
<path d="M74.0404 54.4366C75.6419 54.4366 77.0538 54.0783 78.0021 53.2354C78.8661 52.4557 79.4351 51.2756 79.4351 49.653V39.9172H76.1477V41.0762H76.1055C75.4734 40.1701 74.504 39.6011 73.071 39.6011C70.3947 39.6011 68.5403 41.8348 68.5403 44.9958C68.5403 48.3043 70.7951 50.1166 73.2185 50.1166C74.5251 50.1166 75.3469 49.5898 75.9791 48.8733H76.0634V49.948C76.0634 51.2545 75.4523 52.0132 73.9982 52.0132C72.8603 52.0132 72.2913 51.5285 72.1016 50.9595H68.7721C69.1093 53.2143 71.0691 54.4366 74.0404 54.4366ZM74.0193 47.5667C72.7338 47.5667 71.8909 46.5131 71.8909 44.8904C71.8909 43.2467 72.7338 42.1931 74.0193 42.1931C75.4523 42.1931 76.2109 43.4153 76.2109 44.8694C76.2109 46.3866 75.5155 47.5667 74.0193 47.5667Z" fill="#51564E"/>
<path d="M86.1945 48.5992C84.6983 48.5992 83.9186 47.2927 83.9186 45.3329C83.9186 43.3731 84.6983 42.0455 86.1945 42.0455C87.6907 42.0455 88.4915 43.3731 88.4915 45.3329C88.4915 47.2927 87.6907 48.5992 86.1945 48.5992ZM86.2156 51.0437C89.6927 51.0437 91.9686 48.5782 91.9686 45.3329C91.9686 42.0876 89.6927 39.6221 86.2156 39.6221C82.7596 39.6221 80.4415 42.0876 80.4415 45.3329C80.4415 48.5782 82.7596 51.0437 86.2156 51.0437Z" fill="#51564E"/>
<path d="M92.9717 50.7065H96.4066V39.917H92.9717V50.7065ZM92.9717 38.4208H96.4066V35.6392H92.9717V38.4208Z" fill="#51564E"/>
<path d="M97.8975 54.268H101.332V49.5898H101.375C102.049 50.4959 103.039 51.0438 104.43 51.0438C107.254 51.0438 109.129 48.81 109.129 45.3119C109.129 42.0666 107.38 39.6011 104.514 39.6011C103.039 39.6011 101.986 40.2543 101.248 41.2237H101.185V39.9172H97.8975V54.268ZM103.545 48.3886C102.07 48.3886 101.227 47.1874 101.227 45.4383C101.227 43.6893 101.986 42.3617 103.482 42.3617C104.957 42.3617 105.652 43.5839 105.652 45.4383C105.652 47.2717 104.852 48.3886 103.545 48.3886Z" fill="#51564E"/>
<path d="M114.722 51.0438C117.546 51.0438 119.632 49.8216 119.632 47.4614C119.632 44.7008 117.398 44.2161 115.502 43.9C114.132 43.6471 112.91 43.5418 112.91 42.7831C112.91 42.1088 113.563 41.7927 114.406 41.7927C115.354 41.7927 116.007 42.0877 116.134 43.0571H119.295C119.126 40.9287 117.482 39.6011 114.427 39.6011C111.877 39.6011 109.77 40.7812 109.77 43.0571C109.77 45.5859 111.772 46.0916 113.647 46.4077C115.08 46.6606 116.387 46.766 116.387 47.7353C116.387 48.4307 115.733 48.8101 114.701 48.8101C113.563 48.8101 112.846 48.2832 112.72 47.2085H109.475C109.58 49.5898 111.561 51.0438 114.722 51.0438Z" fill="#51564E"/>
<path d="M124.297 51.0226C125.793 51.0226 126.742 50.4325 127.521 49.3788H127.584V50.7065H130.872V39.917H127.437V45.9439C127.437 47.2294 126.72 48.1145 125.54 48.1145C124.445 48.1145 123.918 47.4612 123.918 46.2811V39.917H120.504V46.9976C120.504 49.3999 121.81 51.0226 124.297 51.0226Z" fill="#51564E"/>
<path d="M132.366 50.7066H135.801V44.6586C135.801 43.3732 136.433 42.467 137.508 42.467C138.541 42.467 139.025 43.1414 139.025 44.3004V50.7066H142.46V44.6586C142.46 43.3732 143.071 42.467 144.167 42.467C145.2 42.467 145.684 43.1414 145.684 44.3004V50.7066H149.119V43.6893C149.119 41.2659 147.897 39.6011 145.453 39.6011C144.062 39.6011 142.903 40.1911 142.06 41.4977H142.018C141.47 40.3386 140.395 39.6011 138.983 39.6011C137.424 39.6011 136.391 40.3386 135.717 41.4555H135.654V39.9172H132.366V50.7066Z" fill="#51564E"/>
<path fill-rule="evenodd" clip-rule="evenodd" d="M18.1617 61.243C27.8604 61.243 35.7227 53.3807 35.7227 43.682C35.7227 33.9834 27.8604 26.1211 18.1617 26.1211C8.46301 26.1211 0.600708 33.9834 0.600708 43.682C0.600708 53.3807 8.46301 61.243 18.1617 61.243ZM23.6401 34.3017C23.9068 33.3545 22.9875 32.7944 22.148 33.3925L10.4288 41.7412C9.51836 42.3898 9.66157 43.682 10.6439 43.682H13.7299V43.6582H19.7444L14.8437 45.3873L12.6833 53.0624C12.4166 54.0097 13.3358 54.5698 14.1754 53.9716L25.8946 45.623C26.805 44.9744 26.6617 43.682 25.6795 43.682H20.9996L23.6401 34.3017Z" fill="#51564E"/>
</g>
<g clip-path="url(#clip2_82_2094)">
<path fill-rule="evenodd" clip-rule="evenodd" d="M249.106 28.3959C249.106 27.176 250.106 26.187 251.339 26.187H255.23C256.107 26.187 256.958 26.4879 257.637 27.0385L258.82 27.9985L258.85 28.0252C258.877 28.016 258.905 28.0071 258.932 27.9985C261.067 27.322 263.657 27.1934 266.301 27.1934C268.945 27.1934 271.536 27.322 273.671 27.9985C273.698 28.0071 273.725 28.016 273.753 28.0252L273.782 27.9985L274.966 27.0385C275.644 26.4879 276.495 26.187 277.373 26.187H281.263C282.497 26.187 283.496 27.176 283.496 28.3959V29.7615C283.496 30.818 283.046 31.8256 282.257 32.5372L281.302 33.3977C280.836 33.8177 280.277 34.1235 279.669 34.2901L279.443 34.3521C280.328 36.44 280.817 38.6718 280.817 40.4773C280.817 47.74 276.274 50.8766 272.271 53.6404C269.119 55.8169 266.301 57.762 266.301 61.309C266.301 57.762 263.484 55.8169 260.332 53.6404C256.329 50.8766 251.786 47.74 251.786 40.4773C251.786 38.6718 252.275 36.44 253.159 34.3521L252.933 34.2901C252.326 34.1235 251.766 33.8177 251.3 33.3977L250.346 32.5372C249.556 31.8256 249.106 30.818 249.106 29.7615V28.3959ZM269.204 46.4148C269.204 46.7618 269.051 47.0945 268.779 47.3399C268.507 47.5853 268.138 47.7231 267.753 47.7231C267.42 47.7231 267.1 47.6203 266.843 47.4343C267.28 48.5907 268.398 49.6864 270.098 47.9244C271.598 46.2871 270.031 42.8338 268.504 40.7846C267.995 40.1016 267.159 39.7728 266.301 39.7728C265.443 39.7728 264.608 40.1016 264.099 40.7846C262.572 42.8338 261.004 46.2871 262.505 47.9244C264.205 49.6864 265.323 48.5907 265.759 47.4343C265.503 47.6203 265.182 47.7231 264.85 47.7231C264.465 47.7231 264.096 47.5853 263.823 47.3399C263.551 47.0945 263.398 46.7618 263.398 46.4148H269.204ZM260.743 36.1925H256.699L259.886 38.7166C260.587 39.272 261.612 39.0945 262.046 38.3424C262.594 37.3929 261.866 36.1925 260.743 36.1925ZM271.86 36.1925H275.904L272.717 38.7166C272.016 39.272 270.991 39.0945 270.557 38.3424C270.009 37.3929 270.736 36.1925 271.86 36.1925Z" fill="#51564E"/>
<path d="M288.313 51.0651H291.896V37.5519H288.313V51.0651ZM288.313 35.4446H291.896V32.231H288.313V35.4446Z" fill="#51564E"/>
<path d="M294.204 55.4904H297.786V49.5373H297.839C298.603 50.6963 299.841 51.4602 301.738 51.4602C305.215 51.4602 307.585 48.6943 307.585 44.3216C307.585 40.107 305.294 37.1831 301.711 37.1831C299.867 37.1831 298.603 38.0524 297.734 39.2377H297.655V37.5519H294.204V55.4904ZM300.974 48.4836C298.84 48.4836 297.707 46.8768 297.707 44.427C297.707 42.0036 298.603 40.0807 300.842 40.0807C303.055 40.0807 303.95 41.8719 303.95 44.427C303.95 46.9821 302.791 48.4836 300.974 48.4836Z" fill="#51564E"/>
<path d="M314.732 51.4602C318.104 51.4602 320.422 49.827 320.422 47.1138C320.422 43.9529 317.919 43.3207 315.654 42.8465C313.731 42.4514 311.94 42.346 311.94 41.187C311.94 40.2124 312.862 39.6855 314.258 39.6855C315.786 39.6855 316.707 40.2124 316.866 41.6612H320.106C319.842 38.948 317.866 37.1831 314.31 37.1831C311.228 37.1831 308.805 38.5792 308.805 41.5031C308.805 44.4533 311.176 45.1119 313.599 45.586C315.443 45.9548 317.155 46.0865 317.155 47.3773C317.155 48.3255 316.26 48.9314 314.679 48.9314C313.072 48.9314 311.966 48.2465 311.729 46.6924H308.41C308.621 49.5636 310.807 51.4602 314.732 51.4602Z" fill="#51564E"/>
<path d="M334.023 51.0649V37.5518H330.441V45.3488C330.441 47.1401 329.413 48.4044 327.727 48.4044C326.2 48.4044 325.488 47.5352 325.488 45.9547V37.5518H321.932V46.5605C321.932 49.5108 323.618 51.4337 326.621 51.4337C328.518 51.4337 329.571 50.7225 330.493 49.4844H330.572V51.0649H334.023Z" fill="#51564E"/>
<path d="M336.341 51.0651H339.923V43.2153C339.923 41.4241 340.898 40.2651 342.347 40.2651C343.664 40.2651 344.428 41.0553 344.428 42.5831V51.0651H348.01V43.2153C348.01 41.4241 348.932 40.2651 350.433 40.2651C351.75 40.2651 352.514 41.0553 352.514 42.5831V51.0651H356.097V41.9773C356.097 39.027 354.49 37.1831 351.645 37.1831C349.933 37.1831 348.51 38.0787 347.589 39.5538H347.536C346.877 38.1314 345.508 37.1831 343.795 37.1831C341.925 37.1831 340.608 38.1314 339.87 39.3694H339.791V37.5519H336.341V51.0651Z" fill="#51564E"/>
<path d="M197.869 51.0651H201.451V32.231H197.869V51.0651Z" fill="#51564E"/>
<path d="M210.211 51.4602C214.399 51.4602 217.27 48.3519 217.27 44.3216C217.27 40.2914 214.399 37.1831 210.211 37.1831C206.022 37.1831 203.151 40.2914 203.151 44.3216C203.151 48.3519 206.022 51.4602 210.211 51.4602ZM210.211 48.7207C207.998 48.7207 206.786 46.9558 206.786 44.3216C206.786 41.6875 207.998 39.8963 210.211 39.8963C212.397 39.8963 213.635 41.6875 213.635 44.3216C213.635 46.9558 212.397 48.7207 210.211 48.7207Z" fill="#51564E"/>
<path d="M224.889 55.6748C226.891 55.6748 228.629 55.2007 229.762 54.147C230.763 53.2251 231.369 51.9343 231.369 50.0377V37.5519H227.918V38.9743H227.866C227.049 37.8416 225.811 37.1831 224.125 37.1831C220.701 37.1831 218.277 39.7646 218.277 43.7948C218.277 47.8777 221.227 50.2485 224.23 50.2485C225.943 50.2485 226.97 49.5636 227.76 48.668H227.839V50.1431C227.839 51.987 226.865 52.9616 224.836 52.9616C223.177 52.9616 222.413 52.3031 222.123 51.4602H218.567C218.936 54.0943 221.201 55.6748 224.889 55.6748ZM224.836 47.3773C222.992 47.3773 221.781 46.0338 221.781 43.7421C221.781 41.4768 222.992 40.0543 224.81 40.0543C226.97 40.0543 228.024 41.7402 228.024 43.7158C228.024 45.7177 227.102 47.3773 224.836 47.3773Z" fill="#51564E"/>
<path d="M240.077 51.4602C244.265 51.4602 247.136 48.3519 247.136 44.3216C247.136 40.2914 244.265 37.1831 240.077 37.1831C235.888 37.1831 233.017 40.2914 233.017 44.3216C233.017 48.3519 235.888 51.4602 240.077 51.4602ZM240.077 48.7207C237.864 48.7207 236.652 46.9558 236.652 44.3216C236.652 41.6875 237.864 39.8963 240.077 39.8963C242.263 39.8963 243.501 41.6875 243.501 44.3216C243.501 46.9558 242.263 48.7207 240.077 48.7207Z" fill="#51564E"/>
<path d="M355.935 34.6015C355.935 33.9953 356.426 33.5039 357.033 33.5039H359.228C359.834 33.5039 360.326 33.9953 360.326 34.6015C360.326 35.2076 359.834 35.699 359.228 35.699H357.033C356.426 35.699 355.935 35.2076 355.935 34.6015Z" fill="#51564E"/>
</g>
<mask id="mask0_82_2094" style="mask-type:alpha" maskUnits="userSpaceOnUse" x="0" y="0" width="104" height="88">
<path d="M104 0L104 88L3.78279e-06 88L7.62939e-06 -4.54598e-06L104 0Z" fill="url(#paint0_linear_82_2094)"/>
</mask>
<g mask="url(#mask0_82_2094)">
<path d="M104 0L104 88L3.78279e-06 88L7.62939e-06 -4.54598e-06L104 0Z" fill="white"/>
</g>
<mask id="mask1_82_2094" style="mask-type:alpha" maskUnits="userSpaceOnUse" x="268" y="0" width="104" height="88">
<path d="M268 88L268 -7.62939e-06L372 -3.08341e-06L372 88L268 88Z" fill="url(#paint1_linear_82_2094)"/>
</mask>
<g mask="url(#mask1_82_2094)">
<path d="M268 88L268 -7.62939e-06L372 -3.08341e-06L372 88L268 88Z" fill="white"/>
</g>
</g>
<defs>
<linearGradient id="paint0_linear_82_2094" x1="40.3899" y1="52.2099" x2="104" y2="52.2099" gradientUnits="userSpaceOnUse">
<stop stop-color="#C0C0C0"/>
<stop offset="1" stop-color="#C9C9C9" stop-opacity="0"/>
</linearGradient>
<linearGradient id="paint1_linear_82_2094" x1="331.61" y1="35.7901" x2="268" y2="35.7901" gradientUnits="userSpaceOnUse">
<stop stop-color="#C0C0C0"/>
<stop offset="1" stop-color="#C9C9C9" stop-opacity="0"/>
</linearGradient>
<clipPath id="clip0_82_2094">
<rect width="372" height="88" fill="white"/>
</clipPath>
<clipPath id="clip1_82_2094">
<rect width="149.268" height="36" fill="white" transform="translate(0 26)"/>
</clipPath>
<clipPath id="clip2_82_2094">
<rect width="163.317" height="36" fill="white" transform="translate(197.268 26)"/>
</clipPath>
</defs>
</svg>
