<svg width="56" height="56" viewBox="0 0 56 56" fill="none" xmlns="http://www.w3.org/2000/svg">
<path fill-rule="evenodd" clip-rule="evenodd" d="M17.3334 19.7776C17.3334 19.164 17.8308 18.6665 18.4445 18.6665H38.8889C39.5026 18.6665 40 19.164 40 19.7776C40 20.3913 39.5026 20.8887 38.8889 20.8887H18.4445C17.8308 20.8887 17.3334 20.3913 17.3334 19.7776ZM20.4347 27.7776C20.4347 27.164 20.9322 26.6665 21.5458 26.6665H35.7944C36.408 26.6665 36.9055 27.164 36.9055 27.7776C36.9055 28.3913 36.408 28.8887 35.7944 28.8887H21.5458C20.9322 28.8887 20.4347 28.3913 20.4347 27.7776ZM18.4445 34.6665C17.8308 34.6665 17.3334 35.164 17.3334 35.7776C17.3334 36.3913 17.8308 36.8887 18.4445 36.8887H38.8889C39.5026 36.8887 40 36.3913 40 35.7776C40 35.164 39.5026 34.6665 38.8889 34.6665H18.4445Z" fill="#282B27"/>
</svg>
